<svg xmlns="http://www.w3.org/2000/svg" xmlns:xlink="http://www.w3.org/1999/xlink" version="1.1" viewBox="714.5 0 571 129"><svg xml:space="preserve" width="2000" height="129" data-version="2" data-id="lg_g5oeG9HYSovN7Xnv5d" viewBox="0 0 571 129" x="0" y="0"><rect width="100%" height="100%" fill="transparent"/><rect width="525.83" height="155.81" x="-262.92" y="-77.91" fill="#575757" rx="0" ry="0" transform="translate(353.7 64.5)scale(.8056)"/><rect width="151.36" height="155.81" x="-75.68" y="-77.91" fill="#575757" rx="0" ry="0" transform="translate(66.46 64.5)scale(.8056)"/><g transform="translate(353.81 64.9)"><filter id="a" width="140%" height="140%" x="-20%" y="-20%"><feGaussianBlur in="SourceAlpha"/><feOffset result="oBlur"/><feFlood flood-color="#F75CFF" flood-opacity="1"/><feComposite in2="oBlur" operator="in"/><feMerge><feMergeNode/><feMergeNode in="SourceGraphic"/></feMerge></filter><g filter="url(#a)"><path fill="#ffffff" d="M-154.32 21.275q-4.51 0-8.49-1.7-3.98-1.7-6.98-4.68-3-2.98-4.7-6.93-1.7-3.96-1.7-8.47 0-4.51 1.7-8.47 1.7-3.95 4.7-6.93 3-2.98 6.98-4.68 3.98-1.69 8.49-1.69 4.47 0 8.38 1.65 3.91 1.65 6.88 4.53l-1.53 6.43q-2.14-3.45-5.75-5.52-3.6-2.07-7.98-2.07-4.6 0-8.3 2.26-3.7 2.25-5.89 6.05-2.19 3.79-2.19 8.44 0 4.61 2.19 8.42 2.19 3.82 5.89 6.07 3.7 2.26 8.3 2.26 4.42 0 8-2.09 3.59-2.1 5.73-5.49l1.53 6.42q-2.97 2.84-6.88 4.51-3.91 1.68-8.38 1.68"/><rect width="37.13" height="43.55" x="-18.57" y="-21.77" fill="none" rx="0" ry="0" transform="translate(-157.13)"/><path fill="#ffffff" d="M-112.44 21.275q-4.52 0-8.49-1.7-3.98-1.7-6.98-4.68-3-2.98-4.7-6.93-1.7-3.96-1.7-8.47 0-4.51 1.7-8.47 1.7-3.95 4.7-6.93 3-2.98 6.98-4.68 3.97-1.69 8.49-1.69 4.56 0 8.51 1.69 3.96 1.7 6.96 4.68 3 2.98 4.7 6.93 1.7 3.96 1.7 8.47 0 4.51-1.7 8.47-1.7 3.95-4.7 6.93-3 2.98-6.96 4.68-3.95 1.7-8.51 1.7m0-5.03q4.6 0 8.33-2.26 3.72-2.25 5.88-6.07 2.16-3.81 2.16-8.42 0-4.65-2.16-8.44-2.16-3.8-5.88-6.05-3.73-2.26-8.33-2.26-4.61 0-8.31 2.26-3.7 2.25-5.88 6.05-2.19 3.79-2.19 8.44 0 4.61 2.19 8.42 2.18 3.82 5.88 6.07 3.7 2.26 8.31 2.26"/><rect width="43.74" height="43.55" x="-21.87" y="-21.77" fill="none" rx="0" ry="0" transform="translate(-111.94)"/><path fill="#ffffff" d="M-81.92 20.435v-41.88h20.66v4.75h-15.36v8.93h13.96v4.75h-13.96v23.45Z"/><rect width="20.66" height="41.88" x="-10.33" y="-20.94" fill="none" rx="0" ry="0" transform="translate(-71.09)"/><path fill="#ffffff" d="M-54 20.435v-41.88h20.65v4.75H-48.7v8.93h13.96v4.75H-48.7v23.45Z"/><rect width="20.65" height="41.88" x="-10.32" y="-20.94" fill="none" rx="0" ry="0" transform="translate(-43.17)"/><path fill="#ffffff" d="M-26.09 20.435v-41.88h20.66v4.75h-15.35v8.93h12.09v4.75h-12.09v18.7h15.35v4.75Z"/><rect width="20.66" height="41.88" x="-10.33" y="-20.94" fill="none" rx="0" ry="0" transform="translate(-15.26)"/><path fill="#ffffff" d="M3.23 20.435v-41.88h20.65v4.75H8.53v8.93h12.1v4.75H8.53v18.7h15.35v4.75Z"/><rect width="20.65" height="41.88" x="-10.32" y="-20.94" fill="none" rx="0" ry="0" transform="translate(14.05)"/><path fill="#ffffff" d="M41.56 20.995q-3.72 0-6.72-1.49-3-1.49-4.77-3.63l1.54-6.42q1.3 2.6 3.91 4.7 2.6 2.09 6.23 2.09 3.3 0 5.47-2.09 2.16-2.1 2.16-5.17 0-2.23-1.07-3.67-1.07-1.45-2.42-2.28-1.35-.84-2.14-1.21l-5.12-2.61q-1.21-.65-3-1.81-1.79-1.17-3.14-3.21-1.35-2.05-1.35-5.31 0-3.16 1.47-5.63 1.46-2.46 4.09-3.86 2.63-1.39 6.03-1.39 3.35 0 5.91 1.18 2.56 1.19 4 2.44l-1.54 6.43q-1.16-1.96-3.44-3.68-2.28-1.72-5.17-1.72-2.79 0-4.46 1.65-1.68 1.65-1.68 4.07 0 1.86.86 3.07.86 1.21 1.96 1.91 1.09.7 1.79 1.07l5.21 2.61q.93.46 2.35 1.3 1.42.84 2.81 2.21 1.4 1.37 2.33 3.35.93 1.98.93 4.77 0 3.58-1.7 6.37-1.69 2.79-4.63 4.38-2.93 1.58-6.7 1.58"/><rect width="24.52" height="42.99" x="-12.26" y="-21.5" fill="none" rx="0" ry="0" transform="translate(42.83)"/><path fill="#ffffff" d="M63.25 20.435v-41.88h5.3v13.68h14.89v-13.68h5.3v41.88h-5.3v-23.45H68.55v23.45Z"/><rect width="25.49" height="41.88" x="-12.74" y="-20.94" fill="none" rx="0" ry="0" transform="translate(76.5)"/><path fill="#ffffff" d="M119.27 21.275q-4.52 0-8.5-1.7-3.97-1.7-6.98-4.68-3-2.98-4.69-6.93-1.7-3.96-1.7-8.47 0-4.51 1.7-8.47 1.69-3.95 4.69-6.93 3.01-2.98 6.98-4.68 3.98-1.69 8.5-1.69 4.56 0 8.51 1.69 3.95 1.7 6.96 4.68 3 2.98 4.7 6.93 1.69 3.96 1.69 8.47 0 4.51-1.69 8.47-1.7 3.95-4.7 6.93-3.01 2.98-6.96 4.68-3.95 1.7-8.51 1.7m0-5.03q4.6 0 8.32-2.26 3.73-2.25 5.89-6.07 2.16-3.81 2.16-8.42 0-4.65-2.16-8.44-2.16-3.8-5.89-6.05-3.72-2.26-8.32-2.26-4.61 0-8.31 2.26-3.7 2.25-5.89 6.05-2.18 3.79-2.18 8.44 0 4.61 2.18 8.42 2.19 3.82 5.89 6.07 3.7 2.26 8.31 2.26"/><rect width="43.73" height="43.55" x="-21.86" y="-21.77" fill="none" rx="0" ry="0" transform="translate(119.77)"/><path fill="#ffffff" d="M149.79 20.435v-41.88h10.37q4.14 0 7.01 1.26 2.86 1.26 4.63 3.28 1.76 2.02 2.58 4.4.81 2.37.81 4.65 0 2.23-.79 4.61-.79 2.37-2.56 4.42-1.77 2.04-4.65 3.3-2.89 1.26-7.03 1.26h-5.07v14.7Zm5.3-19.45h4.79q3.77 0 5.96-1.33 2.19-1.32 3.12-3.35.93-2.02.93-4.16 0-2.05-.91-4.09-.91-2.05-3.07-3.4-2.16-1.35-6.03-1.35h-4.79Z"/><rect width="25.4" height="41.88" x="-12.7" y="-20.94" fill="none" rx="0" ry="0" transform="translate(162.99)"/></g></g><path fill="#b5b5b5" d="M87.453 42.196c-1.82 0-3.891.198-5.152.495a.71.71 0 0 1-.168.018.507.507 0 0 1-.138-.018v-3.975c0-2.528-1.57-6.048-9.04-8.463-4.626-1.491-10.708-2.313-17.128-2.313-6.419 0-12.5.822-17.125 2.313-7.471 2.414-9.039 5.935-9.039 8.462v49.146c0 3.531 3.106 6.804 8.745 9.213 4.956 2.12 11.144 3.286 17.42 3.286s12.465-1.167 17.422-3.286c5.639-2.41 8.744-5.682 8.744-9.213v-4.486c.49-.528 1.074-.671 2.47-.962.988-.212 2.22-.47 3.55-1.031 3.554-1.493 6.41-3.61 8.485-6.294 2.206-2.852 3.532-6.332 3.94-10.349l.05-.472c.462-4.494 1.095-10.643-2.116-15.874-2.453-3.998-6.33-6.197-10.92-6.197m-54.347-3.48c0-4.05 10.174-7.334 22.722-7.334 12.55 0 22.722 3.284 22.722 7.333v49.147c0 4.052-10.173 9.057-22.722 9.057-12.548 0-22.722-5.006-22.722-9.057zm57.141 24.168c-.028.272-.058.542-.083.808-.428 4.178-2.274 6.677-5.993 8.105a3.535 3.535 0 0 1-1.264.217c-.335 0-.644-.038-.915-.095V54.236c.542-.541 1.223-1.053 2.013-1.284.456-.134 2.423-.428 3.447-.428.907 0 1.454.19 2.116 1.268 1.396 2.273 1.033 5.74.68 9.092m-9.975 17.438v-5.321a7.785 7.785 0 0 0 2.635.457 6.973 6.973 0 0 0 2.496-.446c4.751-1.822 7.607-5.27 8.185-10.973.408-3.992 1.065-8.548-1.083-12.047-1.22-1.986-2.825-2.91-5.052-2.91-1.304 0-3.598.323-4.422.565a9.033 9.033 0 0 0-.409.137l-.115.043a7.065 7.065 0 0 0-.313.129 3.094 3.094 0 0 1-.097.04 9.45 9.45 0 0 0-.374.184c-.04.02-.078.042-.117.062a11.124 11.124 0 0 0-.257.146c-.045.03-.094.057-.142.087a14.82 14.82 0 0 0-.263.172c-.068.046-.136.096-.202.142-.07.048-.135.098-.203.149a4.115 4.115 0 0 0-.178.14c-.028.024-.059.047-.087.073v-5.475a3.897 3.897 0 0 0 2.263.453 4.323 4.323 0 0 0 .551-.09c.864-.203 2.618-.404 4.367-.404 3.396 0 6.156 1.575 7.985 4.555 2.7 4.4 2.013 9.898 1.576 14.198-.707 6.942-4.483 11.362-10.333 13.819a9.068 9.068 0 0 1-.317.127c-.034.015-.065.025-.1.037-.071.026-.146.054-.218.078-.034.013-.071.025-.107.037l-.207.067c-.034.011-.07.02-.106.033a7.912 7.912 0 0 1-.302.086 3.726 3.726 0 0 1-.225.062l-.07.018-.26.064-.022.006c-1.652.394-3.148.53-4.477 1.5"/><path fill="#b5b5b5" d="M55.827 44.103c8.551 0 17.206-1.85 17.206-5.388 0-1.035-.709-1.958-2.109-2.746a.86.86 0 1 0-.841 1.501c.771.436 1.23.9 1.23 1.245 0 .37-.443.833-1.32 1.303-2.45-1.736-7.87-2.944-14.165-2.944-6.295 0-11.716 1.208-14.164 2.943-.875-.468-1.32-.932-1.32-1.3 0-.347.46-.814 1.237-1.249a.862.862 0 0 0-.844-1.502c-1.404.79-2.116 1.714-2.116 2.75-.001 3.537 8.656 5.387 17.206 5.387"/></svg></svg>